<svg id="Layer_1" data-name="Layer 1" xmlns="http://www.w3.org/2000/svg" viewBox="0 0 835.12 797.79"><defs><style>.cls-1{fill:#3c40c6;}.cls-2{fill:#333;}</style></defs><path class="cls-1" d="M1452.74,431.78,1336.59,609.84c88.82,17.68,155.76,96,155.76,190.06,0,107-86.76,193.79-193.79,193.79H1086.21l-133.73,205h346.08v.21c220.36,0,399-178.64,399-399C1697.56,634.19,1596.55,492.09,1452.74,431.78Z" transform="translate(-862.44 -401.1)"/><path class="cls-2" d="M1249.81,606.1,1325,490.8l53.43-81.9a399.48,399.48,0,0,0-53.43-7.14q-6.84-.43-13.75-.66H862.44v797.43l110-168.67c0,.05,67-102.34,67-102.34h0l16.39-25.13h89.94l47.58-72.94.11.16,66.86-102.5h0l19.39-29.73H1067.44V606.1Z" transform="translate(-862.44 -401.1)"/></svg>